<?xml version="1.0" encoding="utf-8"?>
<!-- Generator: Adobe Illustrator 18.0.0, SVG Export Plug-In . SVG Version: 6.00 Build 0)  -->
<!DOCTYPE svg PUBLIC "-//W3C//DTD SVG 1.1//EN" "http://www.w3.org/Graphics/SVG/1.1/DTD/svg11.dtd">
<svg version="1.1" xmlns="http://www.w3.org/2000/svg" xmlns:xlink="http://www.w3.org/1999/xlink" x="0px" y="0px"
	 viewBox="-6.8 0 800 800" enable-background="new -6.8 0 800 800" xml:space="preserve">
<g id="Layer_5">
	<rect x="-6.8" fill="#DEE7FF" width="800" height="800"/>
</g>
<g id="Layer_4">
	<g id="Layer_3">
		<polygon fill="#3DA6E0" stroke="#000000" stroke-miterlimit="10" points="242.8,388 242.8,317 303.8,317 263.8,152 357.8,53 
			492.8,135 504.8,353 567.8,257 674.8,220.5 724.8,354 622.8,591 657.8,674 478.8,758 414.8,740 351.8,758 269.8,709 186.8,699 
			198.8,641 62.8,476 69.8,340 177.8,324 		"/>
	</g>
	<g id="Layer_2">
		<linearGradient id="SVGID_1_" gradientUnits="userSpaceOnUse" x1="201.7746" y1="95.0814" x2="625.7745" y2="770.0814">
			<stop  offset="0" style="stop-color:#FFFFFF"/>
			<stop  offset="1" style="stop-color:#000000"/>
		</linearGradient>
		<polygon fill="url(#SVGID_1_)" points="242.8,388 242.8,317 303.8,317 263.8,152 357.8,53 492.8,135 504.8,353 567.8,257 
			674.8,220.5 724.8,354 622.8,591 657.8,674 478.8,758 414.8,740 351.8,758 269.8,709 186.8,699 198.8,641 62.8,476 69.8,340 
			177.8,324 		"/>
		<g>
			<linearGradient id="SVGID_2_" gradientUnits="userSpaceOnUse" x1="452.3188" y1="537.7293" x2="461.0291" y2="551.5958">
				<stop  offset="0" style="stop-color:#8CD5E9"/>
				<stop  offset="1" style="stop-color:#9C4640"/>
			</linearGradient>
			<polygon opacity="0.5" fill="url(#SVGID_2_)" points="470.3,528.3 435.7,549.3 462.2,549.3 			"/>
			<linearGradient id="SVGID_3_" gradientUnits="userSpaceOnUse" x1="419.1806" y1="554.2812" x2="464.4876" y2="626.4091">
				<stop  offset="0" style="stop-color:#8CD5E9"/>
				<stop  offset="1" style="stop-color:#9C4640"/>
			</linearGradient>
			<polygon opacity="0.5" fill="url(#SVGID_3_)" points="460.7,557.2 424.1,557.2 404.9,594.7 456.9,623.1 			"/>
			<linearGradient id="SVGID_4_" gradientUnits="userSpaceOnUse" x1="470.2157" y1="552.8945" x2="504.5555" y2="607.5628">
				<stop  offset="0" style="stop-color:#8CD5E9"/>
				<stop  offset="1" style="stop-color:#9C4640"/>
			</linearGradient>
			<polygon opacity="0.5" fill="url(#SVGID_4_)" points="468.4,558.5 464.7,622.5 537.1,581 			"/>
			<linearGradient id="SVGID_5_" gradientUnits="userSpaceOnUse" x1="448.1349" y1="419.2967" x2="503.9041" y2="508.0801">
				<stop  offset="0" style="stop-color:#8CD5E9"/>
				<stop  offset="1" style="stop-color:#9C4640"/>
			</linearGradient>
			<polygon opacity="0.5" fill="url(#SVGID_5_)" points="494.2,397.7 470.8,451.6 456.5,527.5 474.5,516.5 			"/>
			<linearGradient id="SVGID_6_" gradientUnits="userSpaceOnUse" x1="420.7693" y1="178.0863" x2="476.6829" y2="267.0998">
				<stop  offset="0" style="stop-color:#8CD5E9"/>
				<stop  offset="1" style="stop-color:#9C4640"/>
			</linearGradient>
			<polygon opacity="0.5" fill="url(#SVGID_6_)" points="403.7,203.7 409.7,299.2 487.9,172.5 486.6,144.1 			"/>
			<linearGradient id="SVGID_7_" gradientUnits="userSpaceOnUse" x1="487.0412" y1="513.3619" x2="534.4559" y2="588.8453">
				<stop  offset="0" style="stop-color:#8CD5E9"/>
				<stop  offset="1" style="stop-color:#9C4640"/>
			</linearGradient>
			<polygon opacity="0.5" fill="url(#SVGID_7_)" points="546.8,543.9 480.4,523.8 470,550.8 543.3,574.8 			"/>
			<linearGradient id="SVGID_8_" gradientUnits="userSpaceOnUse" x1="370.5882" y1="51.3638" x2="450.7721" y2="179.015">
				<stop  offset="0" style="stop-color:#8CD5E9"/>
				<stop  offset="1" style="stop-color:#9C4640"/>
			</linearGradient>
			<polygon opacity="0.5" fill="url(#SVGID_8_)" points="401.9,195.4 483.4,136.8 365,65.5 			"/>
			<linearGradient id="SVGID_9_" gradientUnits="userSpaceOnUse" x1="361.8095" y1="349.767" x2="477.9501" y2="534.6606">
				<stop  offset="0" style="stop-color:#8CD5E9"/>
				<stop  offset="1" style="stop-color:#9C4640"/>
			</linearGradient>
			<polygon opacity="0.5" fill="url(#SVGID_9_)" points="425.2,546.5 447.5,533 463,450.9 411.9,333.7 			"/>
			<linearGradient id="SVGID_10_" gradientUnits="userSpaceOnUse" x1="416.0331" y1="215.2392" x2="542.1661" y2="416.0406">
				<stop  offset="0" style="stop-color:#8CD5E9"/>
				<stop  offset="1" style="stop-color:#9C4640"/>
			</linearGradient>
			<polygon opacity="0.5" fill="url(#SVGID_10_)" points="411,312 467,440.6 497.2,371.2 488.5,186.4 			"/>
			<linearGradient id="SVGID_11_" gradientUnits="userSpaceOnUse" x1="514.4711" y1="442.9111" x2="636.0964" y2="636.5363">
				<stop  offset="0" style="stop-color:#8CD5E9"/>
				<stop  offset="1" style="stop-color:#9C4640"/>
			</linearGradient>
			<path opacity="0.5" fill="url(#SVGID_11_)" d="M556.7,607.4C556.7,607.4,556.7,607.3,556.7,607.4
				C556.7,607.3,556.7,607.3,556.7,607.4l51.5-207.2l-84,128.7l28,8.5c1.8,0.5,3,2.3,2.8,4.2l-15.1,133.7L556.7,607.4z"/>
			<linearGradient id="SVGID_12_" gradientUnits="userSpaceOnUse" x1="286.2271" y1="570.0427" x2="366.5612" y2="697.933">
				<stop  offset="0" style="stop-color:#8CD5E9"/>
				<stop  offset="1" style="stop-color:#9C4640"/>
			</linearGradient>
			<polygon opacity="0.5" fill="url(#SVGID_12_)" points="338.8,701 319.9,576.3 300.3,571.8 			"/>
			<linearGradient id="SVGID_13_" gradientUnits="userSpaceOnUse" x1="649.1803" y1="241.2455" x2="713.9366" y2="344.3362">
				<stop  offset="0" style="stop-color:#8CD5E9"/>
				<stop  offset="1" style="stop-color:#9C4640"/>
			</linearGradient>
			<polygon opacity="0.5" fill="url(#SVGID_13_)" points="673.4,234.6 646.3,281.9 710.6,334.9 			"/>
			<linearGradient id="SVGID_14_" gradientUnits="userSpaceOnUse" x1="509.4805" y1="392.4323" x2="577.2794" y2="500.3668">
				<stop  offset="0" style="stop-color:#8CD5E9"/>
				<stop  offset="1" style="stop-color:#9C4640"/>
			</linearGradient>
			<polygon opacity="0.5" fill="url(#SVGID_14_)" points="482.5,516.2 516.4,526.5 609.1,384.3 500.6,407 			"/>
			<linearGradient id="SVGID_15_" gradientUnits="userSpaceOnUse" x1="530.7862" y1="280.6405" x2="602.8398" y2="395.3485">
				<stop  offset="0" style="stop-color:#8CD5E9"/>
				<stop  offset="1" style="stop-color:#9C4640"/>
			</linearGradient>
			<polygon opacity="0.5" fill="url(#SVGID_15_)" points="574.2,262.8 506.4,372 502,398.7 614.3,375.2 636.7,285.3 574.9,262.6 			
				"/>
			<linearGradient id="SVGID_16_" gradientUnits="userSpaceOnUse" x1="619.2068" y1="234.7913" x2="646.6478" y2="278.4768">
				<stop  offset="0" style="stop-color:#8CD5E9"/>
				<stop  offset="1" style="stop-color:#9C4640"/>
			</linearGradient>
			<polygon opacity="0.5" fill="url(#SVGID_16_)" points="639.5,278 665.3,232.9 586.9,258.7 			"/>
			<linearGradient id="SVGID_17_" gradientUnits="userSpaceOnUse" x1="308.9928" y1="430.024" x2="362.3682" y2="514.9965">
				<stop  offset="0" style="stop-color:#8CD5E9"/>
				<stop  offset="1" style="stop-color:#9C4640"/>
			</linearGradient>
			<polygon opacity="0.5" fill="url(#SVGID_17_)" points="291.1,448.3 364.5,504.1 360.6,465.5 			"/>
			<linearGradient id="SVGID_18_" gradientUnits="userSpaceOnUse" x1="232.2082" y1="466.0854" x2="295.5984" y2="567.0015">
				<stop  offset="0" style="stop-color:#8CD5E9"/>
				<stop  offset="1" style="stop-color:#9C4640"/>
			</linearGradient>
			<polygon opacity="0.5" fill="url(#SVGID_18_)" points="218.7,523.1 289.5,559.5 271.3,449.9 			"/>
			<linearGradient id="SVGID_19_" gradientUnits="userSpaceOnUse" x1="274.4947" y1="441.7615" x2="351.5498" y2="564.4318">
				<stop  offset="0" style="stop-color:#8CD5E9"/>
				<stop  offset="1" style="stop-color:#9C4640"/>
			</linearGradient>
			<polygon opacity="0.5" fill="url(#SVGID_19_)" points="279.1,449 298.1,563.3 322.5,568.9 379.9,525.6 			"/>
			<linearGradient id="SVGID_20_" gradientUnits="userSpaceOnUse" x1="342.4369" y1="453.687" x2="425.7818" y2="586.3704">
				<stop  offset="0" style="stop-color:#8CD5E9"/>
				<stop  offset="1" style="stop-color:#9C4640"/>
			</linearGradient>
			<path opacity="0.5" fill="url(#SVGID_20_)" d="M389.1,522.9c0.1,0.1,0.2,0.2,0.4,0.3c0,0.1,0.1,0.1,0.1,0.2
				c0.2,0.2,0.2,0.4,0.3,0.7c0.1,0.2,0.2,0.5,0.3,0.7c0,0.1,0.1,0.1,0.1,0.2l5.5,36.9c0,0,0,0,0,0l3.9,26l17.8-34.7l-50.5-103.8
				l6.2,61.2l15.7,11.9C388.9,522.6,389,522.8,389.1,522.9z"/>
			<linearGradient id="SVGID_21_" gradientUnits="userSpaceOnUse" x1="305.756" y1="134.1984" x2="416.9761" y2="311.2587">
				<stop  offset="0" style="stop-color:#8CD5E9"/>
				<stop  offset="1" style="stop-color:#9C4640"/>
			</linearGradient>
			<polygon opacity="0.5" fill="url(#SVGID_21_)" points="279.4,165.4 402,300.8 395.9,204.7 			"/>
			<linearGradient id="SVGID_22_" gradientUnits="userSpaceOnUse" x1="84.4183" y1="430.3202" x2="268.1494" y2="722.8165">
				<stop  offset="0" style="stop-color:#8CD5E9"/>
				<stop  offset="1" style="stop-color:#9C4640"/>
			</linearGradient>
			<path opacity="0.5" fill="url(#SVGID_22_)" d="M74.5,479.5l130.8,154.9c1.5,1.8,60.1,57.3,60.1,57.3L124.6,429.3L74.5,479.5z"/>
			<linearGradient id="SVGID_23_" gradientUnits="userSpaceOnUse" x1="386.303" y1="598.3884" x2="485.7265" y2="756.6688">
				<stop  offset="0" style="stop-color:#8CD5E9"/>
				<stop  offset="1" style="stop-color:#9C4640"/>
			</linearGradient>
			<polygon opacity="0.5" fill="url(#SVGID_23_)" points="473.8,746.3 456.8,632 401.7,601.9 421,732.3 			"/>
			<linearGradient id="SVGID_24_" gradientUnits="userSpaceOnUse" x1="321.1113" y1="559.3331" x2="416.0414" y2="710.46">
				<stop  offset="0" style="stop-color:#8CD5E9"/>
				<stop  offset="1" style="stop-color:#9C4640"/>
			</linearGradient>
			<polygon opacity="0.5" fill="url(#SVGID_24_)" points="387.9,562.5 383.5,532.7 327.6,574.8 351.7,733.9 			"/>
			<linearGradient id="SVGID_25_" gradientUnits="userSpaceOnUse" x1="337.5233" y1="607.2986" x2="422.2736" y2="742.2196">
				<stop  offset="0" style="stop-color:#8CD5E9"/>
				<stop  offset="1" style="stop-color:#9C4640"/>
			</linearGradient>
			<polygon opacity="0.5" fill="url(#SVGID_25_)" points="391.2,584.8 357,746.3 413.2,732.8 			"/>
			<linearGradient id="SVGID_26_" gradientUnits="userSpaceOnUse" x1="220.1785" y1="514.6047" x2="368.7101" y2="751.0643">
				<stop  offset="0" style="stop-color:#8CD5E9"/>
				<stop  offset="1" style="stop-color:#9C4640"/>
			</linearGradient>
			<polygon opacity="0.5" fill="url(#SVGID_26_)" points="342.5,740.9 291.4,569.2 221.5,533.4 313.6,722.1 			"/>
			<linearGradient id="SVGID_27_" gradientUnits="userSpaceOnUse" x1="133.3535" y1="412.74" x2="332.3594" y2="729.5537">
				<stop  offset="0" style="stop-color:#8CD5E9"/>
				<stop  offset="1" style="stop-color:#9C4640"/>
			</linearGradient>
			<path opacity="0.5" fill="url(#SVGID_27_)" d="M279.5,700.9c1.3,0.1,21.3,12.8,21.3,12.8l-91.5-187.5c0-0.1,0-0.1,0-0.2
				c-0.2-0.6-0.4-1.2-0.3-1.8c0,0,0-0.1,0-0.1c0.1-0.5,0.2-0.9,0.4-1.3c0-0.1,0.2-0.2,0.2-0.3c0-0.1,0-0.2,0.1-0.2l14.8-20.5
				l-87.2-65.2L279,700.8L279.5,700.9z"/>
			<linearGradient id="SVGID_28_" gradientUnits="userSpaceOnUse" x1="584.4566" y1="591.5109" x2="644.6572" y2="687.3491">
				<stop  offset="0" style="stop-color:#8CD5E9"/>
				<stop  offset="1" style="stop-color:#9C4640"/>
			</linearGradient>
			<polygon opacity="0.5" fill="url(#SVGID_28_)" points="651.5,672.3 615.2,594.5 567.3,610.2 630.1,681.6 			"/>
			<linearGradient id="SVGID_29_" gradientUnits="userSpaceOnUse" x1="549.1991" y1="329.8418" x2="695.2222" y2="562.3079">
				<stop  offset="0" style="stop-color:#8CD5E9"/>
				<stop  offset="1" style="stop-color:#9C4640"/>
			</linearGradient>
			<polygon opacity="0.31" fill="url(#SVGID_29_)" points="643.6,289.8 566,602.4 615.6,586.1 716.9,351.9 716,349.5 			"/>
			<linearGradient id="SVGID_30_" gradientUnits="userSpaceOnUse" x1="532.0511" y1="628.3198" x2="587.6234" y2="716.7899">
				<stop  offset="0" style="stop-color:#8CD5E9"/>
				<stop  offset="1" style="stop-color:#9C4640"/>
			</linearGradient>
			<polygon opacity="0.5" fill="url(#SVGID_30_)" points="562.5,616.5 536.2,722.5 622.6,684.9 			"/>
			<linearGradient id="SVGID_31_" gradientUnits="userSpaceOnUse" x1="478.4519" y1="613.6313" x2="548.6031" y2="725.3108">
				<stop  offset="0" style="stop-color:#8CD5E9"/>
				<stop  offset="1" style="stop-color:#9C4640"/>
			</linearGradient>
			<polygon opacity="0.5" fill="url(#SVGID_31_)" points="526.1,726.9 541.9,587.2 464.7,631.5 481.7,746.2 			"/>
			<linearGradient id="SVGID_32_" gradientUnits="userSpaceOnUse" x1="301.4244" y1="87.5906" x2="382.8453" y2="217.2112">
				<stop  offset="0" style="stop-color:#8CD5E9"/>
				<stop  offset="1" style="stop-color:#9C4640"/>
			</linearGradient>
			<polygon opacity="0.5" fill="url(#SVGID_32_)" points="274.1,155.3 274.1,155.4 393.9,195.7 356.4,63.8 			"/>
			<linearGradient id="SVGID_33_" gradientUnits="userSpaceOnUse" x1="237.5818" y1="337.2225" x2="273.7962" y2="394.8752">
				<stop  offset="0" style="stop-color:#8CD5E9"/>
				<stop  offset="1" style="stop-color:#9C4640"/>
			</linearGradient>
			<polygon opacity="0.5" fill="url(#SVGID_33_)" points="252.8,393.6 285.4,381.1 252.8,332.5 			"/>
			<linearGradient id="SVGID_34_" gradientUnits="userSpaceOnUse" x1="268.6899" y1="307.8827" x2="306.9885" y2="368.8533">
				<stop  offset="0" style="stop-color:#8CD5E9"/>
				<stop  offset="1" style="stop-color:#9C4640"/>
			</linearGradient>
			<polygon opacity="0.5" fill="url(#SVGID_34_)" points="289.4,373.1 299.8,321.6 254.9,321.6 			"/>
			<linearGradient id="SVGID_35_" gradientUnits="userSpaceOnUse" x1="285.2264" y1="328.4554" x2="369.067" y2="461.928">
				<stop  offset="0" style="stop-color:#8CD5E9"/>
				<stop  offset="1" style="stop-color:#9C4640"/>
			</linearGradient>
			<polygon opacity="0.5" fill="url(#SVGID_35_)" points="359.4,453 357,429 306.9,325.9 295.6,381.9 			"/>
			<linearGradient id="SVGID_36_" gradientUnits="userSpaceOnUse" x1="197.9" y1="647.9401" x2="242.7659" y2="719.3657">
				<stop  offset="0" style="stop-color:#8CD5E9"/>
				<stop  offset="1" style="stop-color:#9C4640"/>
			</linearGradient>
			<polygon opacity="0.5" fill="url(#SVGID_36_)" points="204.8,649.5 194.3,692.9 262,699.2 			"/>
			<linearGradient id="SVGID_37_" gradientUnits="userSpaceOnUse" x1="248.1309" y1="166.344" x2="479.9464" y2="535.39">
				<stop  offset="0" style="stop-color:#8CD5E9"/>
				<stop  offset="1" style="stop-color:#9C4640"/>
			</linearGradient>
			<polygon opacity="0.5" fill="url(#SVGID_37_)" points="416.6,533.7 402.7,313.3 279.6,177.2 313.5,321.6 			"/>
			<linearGradient id="SVGID_38_" gradientUnits="userSpaceOnUse" x1="46.5456" y1="367.4588" x2="105.0506" y2="460.5977">
				<stop  offset="0" style="stop-color:#8CD5E9"/>
				<stop  offset="1" style="stop-color:#9C4640"/>
			</linearGradient>
			<polygon opacity="0.5" fill="url(#SVGID_38_)" points="71.9,470.9 120.6,422.3 77.9,355.5 			"/>
			<linearGradient id="SVGID_39_" gradientUnits="userSpaceOnUse" x1="112.1228" y1="316.9662" x2="164.2754" y2="399.9921">
				<stop  offset="0" style="stop-color:#8CD5E9"/>
				<stop  offset="1" style="stop-color:#9C4640"/>
			</linearGradient>
			<polygon opacity="0.5" fill="url(#SVGID_39_)" points="125.3,415.1 170.6,331.8 80,344.1 			"/>
			<linearGradient id="SVGID_40_" gradientUnits="userSpaceOnUse" x1="271.6378" y1="382.0836" x2="331.6561" y2="477.6315">
				<stop  offset="0" style="stop-color:#8CD5E9"/>
				<stop  offset="1" style="stop-color:#9C4640"/>
			</linearGradient>
			<path opacity="0.5" fill="url(#SVGID_40_)" d="M252,403.8l23.9,32.7l74.7,18.5l-60.4-67.3L252.6,402
				C252.4,402.6,252.3,403.2,252,403.8z"/>
			<linearGradient id="SVGID_41_" gradientUnits="userSpaceOnUse" x1="143.8091" y1="341.8389" x2="245.2237" y2="503.289">
				<stop  offset="0" style="stop-color:#8CD5E9"/>
				<stop  offset="1" style="stop-color:#9C4640"/>
			</linearGradient>
			<polygon opacity="0.5" fill="url(#SVGID_41_)" points="130.6,421.7 229,495.3 268.8,440 178.8,333.3 			"/>
		</g>
	</g>
	<g id="Layer_1">
		<path fill="#07353D" d="M732.6,349.4L684,218.2c-1.5-4-5.8-6-9.8-4.7l-107.6,35.4c-1.7,0.6-3.2,1.8-4.2,3.3l-51.5,83.1l-9.2-201.7
			c-0.1-2.6-1.5-5-3.8-6.4L361,44.8c-3.2-1.9-7.4-1.3-9.9,1.5L259.7,148c-1.7,1.9-2.4,4.6-1.8,7.1L295.3,306h-50.4
			c-4.3,0-7.8,3.5-7.8,7.8V379l-51-61.4c-1.7-2.1-4.3-3.1-7.1-2.8L70,329.6c-3.7,0.5-6.6,3.6-6.8,7.4l-7.4,141.5
			c-0.1,2,0.6,3.9,1.8,5.4l133,157.6L176.9,698c-0.5,2.2-0.1,4.6,1.2,6.4c1.3,1.9,3.4,3,5.6,3.3l92.4,8.6l70.6,46.1
			c1.3,0.8,2.8,1.3,4.3,1.3c0.6,0,1.2-0.1,1.8-0.2l65.1-15.7l59.2,15.7c1.7,0.5,3.5,0.3,5.1-0.4l182.7-79.6c1.9-0.8,3.4-2.4,4.2-4.4
			c0.7-2,0.7-4.2-0.2-6.1l-38.3-82.3l101.7-235.5C733.3,353.4,733.3,351.3,732.6,349.4z M710.6,334.9l-64.2-53l27-47.3L710.6,334.9z
			 M639.5,278l-52.6-19.3l78.4-25.8L639.5,278z M574.2,262.8l0.7-0.2l61.7,22.6l-22.3,89.9L502,398.7l4.4-26.6L574.2,262.8z
			 M313.6,722.1l-92.1-188.7l69.8,35.8l51.1,171.7L313.6,722.1z M271.3,449.9l18.2,109.6l-70.8-36.4L271.3,449.9z M252.8,332.5
			l32.6,48.6l-32.6,12.4V332.5z M252.6,402l37.7-14.3l60.4,67.3L276,436.5L252,403.8C252.3,403.2,252.4,402.6,252.6,402z
			 M306.9,325.9L357,429l2.4,24l-63.8-71L306.9,325.9z M401.9,195.4L365,65.5l118.4,71.3L401.9,195.4z M395.9,204.7l6,96.1
			L279.4,165.4L395.9,204.7z M486.6,144.1l1.3,28.4l-78.2,126.7l-6-95.5L486.6,144.1z M497.2,371.2L467,440.6L411,312l77.5-125.6
			L497.2,371.2z M543.3,574.8l-73.3-24l10.5-27l66.3,20.1L543.3,574.8z M404.9,594.7l19.3-37.6h36.6l-3.8,65.9L404.9,594.7z
			 M470.3,528.3l-8.1,21h-26.5L470.3,528.3z M468.4,558.5l68.6,22.5l-72.3,41.5L468.4,558.5z M482.5,516.2L500.6,407l108.5-22.6
			l-92.7,142.2L482.5,516.2z M474.5,516.5l-18,11l14.3-75.9l23.4-53.9L474.5,516.5z M463,450.9L447.5,533l-22.3,13.5l-13.4-212.9
			L463,450.9z M399.6,587.9l-3.9-26c0,0,0,0,0,0l-5.5-36.9c0-0.1,0-0.1-0.1-0.2c0-0.3-0.2-0.5-0.3-0.7c-0.1-0.2-0.2-0.5-0.3-0.7
			c0-0.1,0-0.1-0.1-0.2c-0.1-0.1-0.3-0.2-0.4-0.3c-0.1-0.1-0.2-0.3-0.4-0.4L373,510.5l-6.2-61.2l50.5,103.8L399.6,587.9z
			 M364.5,504.1l-73.4-55.8l69.5,17.2L364.5,504.1z M379.9,525.6l-57.4,43.3l-24.4-5.6l-19-114.2L379.9,525.6z M319.9,576.3
			L338.8,701l-38.5-129.2L319.9,576.3z M327.6,574.8l55.9-42.2l4.4,29.8l-36.2,171.4L327.6,574.8z M391.2,584.8l22,148L357,746.3
			L391.2,584.8z M401.7,601.9l55.2,30.1l17,114.4l-52.8-14L401.7,601.9z M464.7,631.5l77.2-44.3l-15.8,139.6l-44.4,19.4L464.7,631.5
			z M562.5,616.5l60.1,68.3l-86.5,37.6L562.5,616.5z M556.7,607.3C556.7,607.3,556.7,607.3,556.7,607.3
			C556.7,607.3,556.7,607.4,556.7,607.3l-16.9,67.9l15.1-133.7c0.2-1.9-1-3.6-2.8-4.2l-28-8.5l84-128.7L556.7,607.3z M356.4,63.8
			l37.5,131.9l-119.7-40.4l0,0L356.4,63.8z M279.6,177.2l123.2,136.1l13.8,220.4l-103.1-212L279.6,177.2z M299.8,321.6l-10.4,51.5
			l-34.5-51.5H299.8z M268.8,440L229,495.3l-98.4-73.6l48.1-88.4L268.8,440z M77.9,355.5l42.6,66.8l-48.6,48.6L77.9,355.5z
			 M80,344.1l90.7-12.2l-45.3,83.3L80,344.1z M74.5,479.5l50.1-50.1l140.7,262.4c0,0-58.5-55.5-60.1-57.3L74.5,479.5z M204.8,649.5
			l57.2,49.8l-67.7-6.3L204.8,649.5z M279.5,700.9l-0.5,0L137.3,436.5l87.2,65.2l-14.8,20.5c0,0.1,0,0.2-0.1,0.2
			c-0.1,0.1-0.2,0.2-0.2,0.3c-0.2,0.4-0.3,0.9-0.4,1.3c0,0,0,0.1,0,0.1c-0.1,0.6,0.1,1.2,0.3,1.8c0,0.1,0,0.1,0,0.2l91.5,187.5
			C300.8,713.7,280.8,701,279.5,700.9z M651.5,672.3l-21.3,9.3l-62.8-71.4l47.9-15.7L651.5,672.3z M615.6,586.1L566,602.4
			l77.6-312.6l72.4,59.7l0.9,2.4L615.6,586.1z"/>
	</g>
</g>
</svg>
